<?xml version="1.0" encoding="utf-8" ?>
<svg baseProfile="full" height="129.52157692462205" version="1.1" width="735.8199402513919" xmlns="http://www.w3.org/2000/svg" xmlns:ev="http://www.w3.org/2001/xml-events" xmlns:xlink="http://www.w3.org/1999/xlink"><defs /><rect fill="white" height="129.52157692462205" width="735.8199402513919" x="0" y="0" /><path d="M25,51.18339738212526 m22.448953247070314,-13.491464233398437 l0.6960094451904297,2.5782373428344725 -0.1653398394584656,2.1658226013183595 l-0.6462034225463867,2.708439826965332 -0.25531389713287356,3.257761764526367 l-0.7102141380310059,3.237640380859375 -0.1376609206199646,3.1301589965820313 l-0.5124893188476562,2.987970733642578 -0.27982478141784667,2.1549327850341795 l-0.052300775051116945,2.104732322692871 -0.13268377780914306,1.2566390991210938 l0.5259210586547851,0.48508787155151367 0.5064416885375976,-0.31567704677581787 m-4.814166641235351,-13.366757202148438 l-0.42225847244262693,-0.4424795627593994 0.4974318504333496,-0.28444929122924806 l1.152417278289795,0.1133542537689209 2.405890464782715,-0.6687195301055908 l2.2044239044189453,-0.17054158449172974 2.3360008239746093,0.15354751348495482 m14.499916076660156,-5.732808685302734 l-0.862977123260498,1.4795249938964843 -0.7778522968292236,2.6755626678466795 l-1.0895940780639648,3.218104934692383 -0.8184682846069335,2.703359603881836 l-0.5544395923614502,2.62363224029541 -0.47020659446716306,2.1306854248046876 l-0.28804659843444824,2.0616033554077147 -0.640946912765503,1.550912857055664 l-0.5162832736968994,0.6519088268280029 -0.28360154628753664,0.3858044624328613 l-0.17066724300384523,0.14072270393371583 -0.17529188394546508,-0.8960341453552246 l-0.5579833984375,-2.2956687927246096 0.872001838684082,-2.2485939025878907 l1.1143108367919923,-2.7863285064697267 1.9046091079711913,-2.0836746215820314 l1.5732871055603028,-1.1642541885375977 0.7323391437530518,0.005941463261842727 l1.1868773460388184,0.39659905433654785 0.5369503498077393,0.6846235275268555 l0.47023830413818357,2.1046985626220702 -0.30558037757873535,2.256616401672363 l-0.326474928855896,1.9592565536499023 -0.5335095405578614,2.183803367614746 l0.04666779637336731,0.8691486358642578 -0.09176934957504272,0.3007474184036255 l0.08191818594932557,0.2667387962341309 0.13999669551849364,-0.6958694458007812 m9.526874542236328,-10.188566589355469 l-0.5119355201721192,1.1535608291625976 -1.4588390350341798,2.83132381439209 l-1.5607223510742188,3.822862243652344 -1.4806374549865722,3.831717681884766 l-1.4068918228149414,3.661626434326172 -0.43296380043029786,2.3771772384643555 l0.4095069408416748,1.9092082977294922 0.061986619234085084,0.7625428199768066 l-0.15260512828826905,-0.004148006811738015 0.6188987731933594,-0.10925120115280151 l0.31690847873687744,-1.7563953399658203 0.19349706172943115,-2.670709800720215 l1.0525005340576172,-2.6345230102539063 0.23041749000549316,-2.682980537414551 l0.9958302497863769,-1.5648173332214355 1.200152587890625,-1.9850347518920899 l0.6446646690368653,-0.8138517379760742 1.4868849754333495,0.45813794136047364 l0.35581398010253906,1.9902105331420898 -0.6818199157714844,2.8352691650390627 l-1.44279146194458,1.3968488693237304 -1.261344051361084,1.7935773849487304 l-1.4218674659729005,0.6711912155151367 -0.9679164886474609,-0.01930295079946518 m23.67178955078125,-8.925924682617188 l0.08546545505523681,0.10846205949783325 -0.12470676898956298,-0.38434252738952634 l-0.7376251220703125,-0.21521282196044922 -0.8462592124938965,-0.28788557052612307 l-0.8429047584533691,0.29314770698547366 -1.8146129608154298,0.23035893440246583 l-1.7578298568725585,1.7574718475341797 -1.1240787506103516,2.0569377899169923 l0.6760086059570313,1.980290412902832 1.26182279586792,1.1793585777282716 l2.0188465118408203,0.6547942161560059 2.0254425048828124,-0.2776822805404663 l5.58967170715332,-3.3856796264648437 1.4752917289733887,-0.7336193084716797 l2.1773576736450195,-1.1649189949035645 -0.06814610362052917,0.023744314908981323 l-0.3174244165420532,0.005841725319623947 0.24667584896087646,-0.0854956030845642 l-0.023960039019584656,-0.13772106170654297 -0.4015080451965332,-0.20383687019348146 l0.08187344670295715,0.12541247606277467 -0.15810900926589966,0.09795933961868286 l0.042592018842697144,-0.3039607048034668 m8.668686676025391,0.00866890773177147 l-1.2426682472229005,1.7575958251953125 -1.5185307502746581,2.6520454406738283 l-1.8003597259521484,3.1689971923828124 -0.9620975494384766,3.5489276885986327 l-0.733271598815918,3.1806060791015627 -0.8902455329895019,2.192085075378418 l-0.44591798782348635,1.6160903930664063 -0.6795559406280518,-0.1124488115310669 l0.07719626426696777,-0.772019338607788 -0.341146445274353,-2.3196353912353516 l0.8911493301391602,-3.7801212310791015 0.5362072467803956,-4.250591659545899 l2.141587257385254,-2.597103309631348 0.9222546577453613,-1.7533649444580077 l0.10637488365173339,-0.5897262573242188 -0.15712685585021974,0.023699538409709932 l0.16801517009735106,0.1873411178588867 0.1815613627433777,0.6250708103179932 l0.7356063842773437,0.3319703102111816 1.440548038482666,0.48308849334716797 l1.130363368988037,-0.4316598892211914 1.8272275924682617,0.4602540969848633 l1.925214958190918,-0.09726654291152954 1.209586238861084,0.392895245552063 l0.2835150957107544,-0.2755002498626709 -0.6223197937011719,0.6898712635040283 l-1.5746814727783203,1.213304328918457 -2.844504165649414,2.108592987060547 l-2.9017507553100588,2.2582096099853515 -2.0370018005371096,1.3167582511901856 l-1.1524420738220216,0.41416521072387696 -0.3495251893997192,-0.059574848413467406 m18.562277221679686,-8.416799926757813 l-0.008386059105396271,0.32339370250701904 -0.21750156879425048,0.4007054328918457 l0.018722303211688995,2.2466943740844725 0.7484803199768066,2.3908071517944336 l0.6730282783508301,2.80489444732666 1.7713764190673829,3.3822826385498046 l2.9336969375610353,0.7038422584533691 3.034403610229492,-0.03269311785697937 m8.745533752441407,-11.034915924072266 l-0.10268559455871581,0.447768497467041 -0.42221851348876954,1.5792041778564454 l-1.3797694206237794,3.281317138671875 -2.890519714355469,4.6862236022949215 l-3.8734020233154296,4.800941848754883 -3.505072021484375,8.225981903076171 l-3.7913509368896485,7.3879539489746096 -2.7551315307617186,5.985373687744141 l-2.0131458282470702,4.769805145263672 m42.83387756347656,-47.10744934082031 l-0.40020265579223635,0.3297886371612549 -0.6501165390014648,0.7645467758178711 l-0.4552180290222168,1.4339975357055663 -0.22234203815460205,2.1442586898803713 l-0.9443288803100586,2.678449821472168 -0.9533744812011719,2.813555145263672 l-0.6902000427246093,3.0988491058349608 -1.273414421081543,3.0256275177001952 l-0.2931779384613037,2.7432775497436523 -0.13041901588439941,1.636480712890625 l-0.010060633718967437,0.6634441375732422 0.3878010272979736,-0.049536094069480896 l-0.1475290298461914,-0.1177095890045166 0.372191047668457,-1.1243995666503905 l0.5926957607269288,-2.4168251037597654 1.3380045890808105,-2.351971435546875 l1.146691131591797,-3.035089683532715 2.375316619873047,-2.031911849975586 l2.538886833190918,-2.153005599975586 3.0096065521240236,-1.2809287071228028 l2.1059951782226562,-1.2401618003845214 2.4390830993652344,0.09478904008865356 l2.448807144165039,0.7955546379089355 2.30481071472168,1.363477611541748 l1.2661751747131347,1.2286528587341308 0.22071456909179688,1.9714824676513671 l-0.09527275562286378,2.396091651916504 -1.7537471771240234,2.06455020904541 l-2.423525810241699,1.5966487884521485 -2.3454078674316405,1.6008075714111327 l-2.970937728881836,0.6272594928741455 -2.902445983886719,0.9259535789489746 l-2.8735864639282225,0.15255002975463866 -2.3045454025268555,-0.3248661994934082 l-0.6097849845886231,0.08650105595588684 0.6762233734130859,-0.5341775417327881 l2.559395599365234,-0.7278466701507569 3.828934097290039,-0.30428404808044435 l3.6615474700927733,0.06547116637229919 2.518649673461914,0.3077337980270386 m2.6483591079711912,1.6778255462646485 l-0.22174434661865233,-0.9880887031555176 -0.8366909980773926,-1.6867683410644532 l-0.6296486854553223,-1.747716522216797 -0.646966552734375,-1.8656404495239258 l-1.0508059501647948,-2.2829864501953123 0.033304271101951596,-2.1060821533203127 l0.7189855575561523,-2.000223922729492 0.7585899353027343,-2.1203916549682615 l1.2844484329223633,-1.203819179534912 1.6273323059082032,-1.3931937217712402 l1.976386260986328,-0.5659817695617676 2.288217544555664,-0.8654471397399902 l2.3518096923828127,-0.40448293685913084 1.9498861312866211,-0.58497314453125 l2.179784393310547,-0.006784312427043915 m8.491244506835937,3.1562564849853514 l-0.08095008730888367,-0.4624619007110596 -0.298423171043396,-0.9374931335449219 l-1.049135398864746,-1.1188612937927247 -1.6519515991210938,-1.4233851432800293 l-1.6677078247070312,-0.7343584060668945 -2.0959794998168944,-0.3334216594696045 l-2.09053955078125,0.7103714942932129 -2.0332794189453125,1.6617658615112305 l-1.8249124526977538,2.3269554138183595 -1.0072642326354981,3.5946887969970702 l-0.16411216259002687,3.418985366821289 0.8937688827514648,2.065378189086914 l1.8748558044433594,1.1160518646240234 2.635678291320801,0.224638032913208 l2.6197635650634767,-0.7657382011413574 2.383815574645996,-1.4929856300354003 l2.0359798431396485,-2.61519718170166 1.8519092559814454,-2.446043014526367 l0.8753193855285645,-2.5991390228271483 0.3660621404647827,-0.9800491333007812 l-0.11261950731277466,-0.021606427431106568 -0.5181608200073242,-0.11785389184951782 l-0.5236330509185791,1.8897701263427735 -0.5373230934143066,1.0411520957946778 l0.37448806762695314,1.1063984870910644 0.9317564964294434,0.8347824096679688 l1.6656661987304688,0.23628392219543456 2.246420669555664,-0.19655096530914307 l2.1828983306884764,-1.404437255859375 2.1783456802368164,-2.272639846801758 l2.542022705078125,-1.7732402801513671 2.013821601867676,-1.3850015640258788 l1.7891815185546875,-0.5544111251831054 1.0087308883666992,-0.41925048828125 l1.6399534225463868,0.5602594375610351 0.8809941291809082,-0.3864197492599487 l0.9386124610900879,0.36146841049194334 0.3008568286895752,0.27976598739624026 l0.07734332084655762,0.1304362893104553 -0.35070128440856935,-0.26423215866088867 l-0.4856393814086914,-0.07617393732070923 -1.6659675598144532,-0.5603485107421875 l-1.5634703636169434,0.1369794487953186 -1.1159809112548829,1.3610371589660644 l-1.2991951942443847,2.6211204528808594 -0.5833224773406982,3.8560867309570312 l0.4560418128967285,2.3388038635253907 1.9866384506225585,0.7280912399291992 l3.1824390411376955,-0.9436657905578614 4.397409057617187,-1.875411605834961 l3.649913787841797,-3.048427963256836 3.1789358139038084,-2.607021713256836 l2.537908363342285,-1.8694475173950196 1.4872352600097656,-0.4697002410888672 l-0.5928032875061036,-0.7828649520874024 -0.09018450379371643,0.6899896144866944 l-0.06330382823944092,1.892909622192383 -0.2847586154937744,2.4480161666870117 l-0.20334088802337646,2.792129135131836 -0.14992756843566896,2.2801721572875975 l0.5883074283599854,0.9470082283020019 0.9920234680175781,0.10296319723129273 l1.8558662414550782,-0.8736806869506836 m6.6247108459472654,-6.412846374511719 l1.1515825271606446,0.7993159294128418 0.749722671508789,1.2768089294433593 l0.33636045455932617,2.7008697509765627 0.11419529914855957,3.7846073150634765 l-0.6278310298919678,3.829898452758789 -0.20377564430236816,4.978605270385742 l-1.1653928756713867,4.371334075927734 -1.2795663833618165,4.250452041625977 l-1.5637056350708007,3.1926300048828127 -0.8030599594116211,1.743439292907715 l-0.4956812858581543,0.4907116413116455 -0.1886464238166809,-0.08443955183029175 l-0.944189453125,-2.0971508026123047 -0.9481507301330566,-3.5582660675048827 l0.08954931497573852,-4.885765457153321 1.3451835632324218,-5.729763793945312 l2.320266914367676,-5.760295104980469 2.5301618576049805,-5.0882423400878904 l3.2282867431640625,-2.839395523071289 2.90303955078125,-3.1238576889038088 m25.605648803710938,-22.114897155761717 l0.5999233722686768,-0.23640427589416504 0.19395166635513306,0.08164350986480713 l0.23969321250915526,0.6214163303375244 -0.21591830253601074,1.921868133544922 l-0.19667975902557372,3.2198577880859376 -1.2424201011657714,3.7959110260009767 l-0.3145711660385132,4.6104248046875 -0.7311039447784424,3.434002685546875 l0.053638070821762085,1.8699443817138672 0.7661388397216797,0.4485318183898926 l0.7807250499725342,-0.7810404300689697 1.4981077194213868,-2.075539398193359 l1.8084756851196289,-2.9111392974853514 2.0286792755126952,-1.740504837036133 l1.8031410217285155,-0.1899011731147766 0.896126651763916,0.21928820610046387 l0.7309791564941406,0.8798397064208985 0.6068653106689453,0.9386445999145507 l0.8890839576721191,1.341667652130127 0.0785681962966919,0.38968729972839355 m14.21083984375,-4.317406082153321 l-0.007856606692075729,0.2322554588317871 -1.100227451324463,-0.6546165943145752 l-0.7602724552154541,0.1820196032524109 -1.324977493286133,0.1668936491012573 l-0.752470588684082,1.2862360000610351 -1.2428297042846679,1.447025680541992 l-1.0013605117797852,2.2338888168334963 -0.4359311580657959,2.7921897888183596 l0.349846625328064,2.2710186004638673 1.0737080574035645,0.48755507469177245 l2.097434234619141,-0.427641487121582 2.452967071533203,-1.5659340858459472 l2.7316781997680666,-1.7217552185058593 2.189081573486328,-1.8010404586791993 l0.3111090660095215,-2.9747650146484377 0.44719786643981935,-1.06512393951416 l-0.9324215888977051,-0.8644473075866699 -0.6150129318237305,0.4484461784362793 l-1.7290571212768555,-0.07298563718795777 -1.4787044525146484,0.8279181480407715 m11.19332046508789,-8.803276062011719 l1.0282520294189452,2.083232879638672 0.4963394641876221,2.336033248901367 l0.7039824485778808,3.1317668914794923 0.030585384368896483,2.944877815246582 l-0.7664261817932129,2.861713409423828 -0.4981075763702393,2.8505577087402343 l0.3019212245941162,3.212785339355469 -0.6036579132080078,0.6376745223999023 l0.3231609106063843,0.1525218367576599 -0.48688087463378904,-0.6894424438476563 l0.7776731967926025,-1.9783365249633789 1.1925621032714844,-2.8485492706298827 l1.5864126205444335,-2.9313098907470705 1.950727653503418,-2.3085222244262695 l1.8964675903320312,-1.8315860748291015 1.777882957458496,-0.5128543376922607 l1.4749927520751953,0.1921996831893921 1.4493465423583984,1.3635563850402832 l0.7839097023010254,1.8859733581542968 0.9810123443603516,2.393828201293945 l0.44049687385559083,2.2493206024169923 0.8120080947875976,1.8008533477783204 l0.4391068935394287,0.2688283443450928 0.44564337730407716,-0.9799493789672852 m39.1263427734375,-5.066539764404297 l0.07685654759407043,-0.28445730209350584 -0.294076943397522,-1.2365012168884277 l-0.13729777336120605,-1.5443440437316895 -0.3811561107635498,-1.9638092041015625 l-0.23352394104003907,-1.4761973381042481 -1.1947151184082032,-0.8925460815429688 l-1.0526222229003905,0.3957315444946289 -2.346828269958496,0.6737964630126954 l-1.9823726654052733,2.157191276550293 -2.095508575439453,2.6680870056152344 l-1.4014307022094727,3.164058876037598 -0.8566239356994629,2.8649642944335936 l0.06477406024932861,1.9040164947509766 0.09344729781150818,0.1929498314857483 l1.638352394104004,0.13619909286499024 1.4579198837280274,-1.5879918098449708 l2.2367652893066405,-1.9584949493408204 2.2395633697509765,-1.8689434051513671 l1.823143768310547,-0.880084228515625 1.5917521476745606,-0.27803688049316405 l1.0341856002807617,0.4050811767578125 0.9891081809997558,1.1072940826416016 l0.871115779876709,1.9124034881591796 0.14147120714187622,1.934980583190918 l0.1315107226371765,2.4401750564575195 -0.22911379337310792,1.763791847229004 l-0.27831406593322755,1.040260410308838 0.08518645167350769,0.5180047988891602 m10.353759765625,-21.615768432617188 l-0.04606347680091858,-0.3245547771453857 0.04862507879734039,0.07852176427841187 l-0.12387197017669678,0.07969827055931092 -0.004419928044080734,1.245923900604248 l-0.21194980144500733,2.372292327880859 -0.27410387992858887,2.985080909729004 l-0.053696221113204955,3.7168952941894533 0.3621426820755005,3.326979064941406 l0.7885638236999511,2.5175689697265624 1.425412368774414,1.8245477676391602 l1.2057378768920899,0.749966812133789 1.3867105484008788,-0.15069074630737306 l1.2374021530151367,-1.3056215286254882 1.087954616546631,-2.3264654159545897 l1.2541595458984376,-2.40725040435791 0.5172428607940673,-1.8437139511108398 l-0.0420217365026474,-0.5586932182312012 -0.20916271209716797,-0.05680807232856751 l-0.6275640010833741,0.07671664953231812 -0.11145232915878296,0.2730186223983765 l0.29986109733581545,0.36960668563842775 1.2854286193847657,0.5243534088134766 l2.1550662994384764,0.4109958648681641 2.7854406356811525,-0.10801396369934083 l3.2016815185546874,-0.6370308876037598 2.4696245193481445,-1.2379326820373535 l1.6768529891967774,-1.1750577926635741 0.36308603286743163,-1.0101701736450195 l-0.30613369941711427,-0.6782290458679199 -1.52357759475708,-0.8091634750366211 l-1.717771339416504,0.23546013832092286 -1.286075973510742,1.5227910995483398 l-1.0137361526489257,2.705935478210449 0.058570080995559694,2.4067806243896483 l1.760770034790039,1.9967512130737304 2.9123708724975588,0.5167434215545654 m48.8585693359375,-31.943701171875 l0.28691074848175047,-0.052283215522766116 -0.10483757257461548,-0.1757530689239502 l0.2939488410949707,0.5474967002868653 0.45969161987304685,1.613699722290039 l0.6957827091217041,2.4931631088256836 1.0875301361083984,3.4187931060791015 l0.5330448627471924,3.8976016998291017 0.0005336201749742032,3.9142364501953124 l0.4258881092071533,3.6459545135498046 -0.24582209587097167,2.6952524185180664 l0.01283009946346283,1.5410964965820313 0.26342833042144775,0.28273963928222656 l-0.22684721946716307,-0.38623886108398436 0.28848087787628174,-1.2509490966796875 l0.7471530914306641,-2.1847999572753904 1.6668315887451173,-2.3714277267456056 l1.8124378204345704,-1.5332728385925294 2.1045597076416014,-0.2963399887084961 l2.266584587097168,0.7740151882171631 1.786881446838379,0.8118222236633301 l1.6433435440063477,1.734889602661133 0.8936270713806153,1.7015905380249023 l-0.19977593421936035,1.2844720840454102 -0.7929800987243653,1.021256923675537 l-1.2866263389587402,0.3332843542098999 -2.102745246887207,0.08688856363296509 l-1.586258888244629,-0.09682809710502624 -2.2101728439331056,-0.5102390289306641 l-1.2016910552978515,-0.31815214157104493 -0.5902984619140625,-0.321474552154541 l0.553063154220581,-0.34413795471191405 2.2781972885131836,-0.4876248359680176 m19.102037048339845,-5.410248565673828 l-0.034933722019195555,0.11950708627700805 -1.0543052673339843,-0.28392539024353025 l-0.9709733009338379,0.07149338722229004 -0.4416495323181152,0.6099596500396729 l-0.7059428691864014,1.039564609527588 0.12779772281646729,1.7487045288085938 l0.1715471029281616,2.0458969116210937 0.8526385307312012,1.4493089675903321 l1.5795808792114259,0.4294409275054932 1.556062602996826,-0.43197169303894045 l1.2763874053955078,-0.6454673767089844 0.3957474708557129,-0.37790346145629883 l-0.19974433183670043,0.329976224899292 0.12162723541259765,1.4058349609375 l0.3055100917816162,1.723209762573242 0.2652768611907959,0.6840380668640137 m8.38663330078125,-3.938684844970703 l0.9858438491821289,-0.25755116939544676 1.2197736740112304,0.0012348907999694347 l1.8881210327148437,0.26213607788085935 1.3981679916381835,-0.13310879468917847 l1.6715848922729493,0.01195424348115921 0.9564529418945312,-0.390572190284729 l1.2113948822021485,-0.3524614334106445 0.5770120620727539,-1.2087130546569824 m-0.23267819881439208,-5.43526611328125 l-1.4041669845581055,-0.56362943649292 -0.5270719051361084,0.06203790307044983 l-0.9678970336914062,0.5089390277862549 -0.7631152153015137,1.2074430465698243 l-0.8008305549621582,1.9378883361816406 -0.20365586280822753,2.5839422225952147 l-0.014505288004875183,2.970068168640137 -0.23444275856018065,2.4079769134521483 l0.7687004089355469,2.1321428298950194 0.7483010768890381,0.9002487182617187 l1.264651107788086,0.08238025903701782 m9.564532470703124,-6.294390869140625 l-0.43749241828918456,0.9584734916687012 -0.1747383952140808,1.763554573059082 l-0.18497152328491212,1.772524642944336 -0.36709141731262207,0.7131109237670898 l0.5704897880554199,1.0088823318481446 -0.12425829172134399,5.2565138321369884e-05 l0.5787425994873047,-0.36246933937072756 0.6680395603179932,-1.4399524688720704 l1.5279935836791991,-1.671208381652832 1.1236659049987794,-2.2297277450561523 l1.612006378173828,-1.3345183372497558 1.201179599761963,-0.5861063003540039 l0.6949895858764649,0.018341514468193054 0.3514390468597412,0.2656599998474121 l0.336795711517334,0.7447136878967285 m1.6079725265502929,-1.76580753326416 l0.5984487056732177,0.8558032035827636 -0.4461967945098877,1.2807269096374512 l0.19469659328460692,2.2722442626953123 -0.6057911396026612,1.5885683059692384 l-0.018983207643032074,0.9347199440002442 0.6476428508758545,0.2054288387298584 l1.2644903182983398,-1.040479564666748 2.472871017456055,-2.644704818725586 m12.324256896972656,-5.257478713989258 l-0.37228944301605227,1.4379806518554688 -0.5721607208251953,2.5665519714355467 l-0.6485069274902344,2.3297502517700197 -0.43584427833557127,0.9332328796386719 l-0.028606554865837096,-0.21170389652252197 1.2707304000854491,-1.014414405822754 l1.0897184371948243,-1.8570484161376952 1.1596527099609375,-2.271953582763672 l2.0136863708496096,-1.3345783233642579 1.0903696060180663,-1.01405029296875 l-0.013873712718486786,-0.19401838779449462 0.132896888256073,0.11071596145629883 m0.6110214710235595,-2.1055641174316406 l-0.6718337059020996,3.3599681854248047 -0.5720502853393554,3.2981571197509765 l-0.5981580734252929,1.5143264770507812 0.13638962507247926,1.0121670722961427 m6.96231689453125,-3.508067321777344 l-0.010402637720108032,0.1951195478439331 -0.10920997858047485,1.3665251731872559 l0.2903172731399536,2.3398181915283205 0.5069921016693115,1.6094816207885743 l-0.15773802995681763,0.4266506195068359 0.4120764255523682,0.019745919108390807 l1.3202239990234375,-0.5097162246704101 1.1708693504333496,-1.3428296089172362 l1.206180953979492,-1.4732534408569335 1.1448026657104493,-1.2154202461242676 l0.7213650703430176,-0.045391935110092166 1.3437791824340821,0.9427897453308105 m1.6887933731079101,2.4128536224365233 l0.5231725692749023,-0.07238387465476989 0.37417600154876707,-0.5868024826049805 l0.5609278202056884,-1.151817798614502 0.877711009979248,-1.661323356628418 l-0.029312509298324584,-2.0338363647460938 -0.6058569431304932,-1.5276232719421388 l-0.6361115455627442,-0.5000386714935303 -0.8683992385864258,0.974169921875 l-0.2743678569793701,2.5668766021728517 -0.15813810825347902,2.871742057800293 l0.248627233505249,1.8265296936035156 0.7667805671691894,1.0096153259277343 l0.882203483581543,0.4045609474182129 1.4133266448974608,0.18739101886749268 l1.234441375732422,-0.45696272850036623 0.3667793035507202,-0.9462433815002441 l-0.005297087505459786,-1.369905948638916 m0.5893249988555909,-9.452157592773437 l1.1082468032836914,-1.8635751724243164 1.2353202819824218,-2.3847061157226563 l1.189651107788086,-1.9985454559326172 0.6782830238342286,-1.9267692565917969 l0.4260409355163574,-1.6733137130737306 m6.470639038085937,-1.7820304870605468 l-0.5129971027374267,3.0158605575561523 0.17828224897384642,3.6527706146240235 l0.05311863422393799,3.8727046966552736 0.17934222221374513,3.2634552001953123 l0.19901000261306762,2.6400257110595704 -0.2748425483703613,1.5309367179870605 l-0.08124354481697083,1.021063995361328 0.13238253593444824,0.3253803253173828 m-4.778891754150391,-6.160356521606445 l0.0722463846206665,-0.12993485927581788 0.5292901515960693,-0.0451211005449295 l0.9817086219787597,-0.0019615480676293375 1.2878016471862792,-0.5007274627685547 m11.361083221435546,0.0017646502703428269 l0.6896052360534668,1.129603385925293 0.5296226501464844,1.346238899230957 l-0.6382296562194825,0.7634961605072021 0.6186749458312988,0.7774267196655273 l-0.1766669988632202,-0.2141648292541504 0.22259702682495117,-0.3646686315536499 l-0.08636006116867065,-1.0674458503723145 -0.0783205509185791,-1.2716666221618653 l-0.6514329433441162,-1.427431869506836 -0.5883502960205078,-0.6774549007415771 l-0.696448564529419,-0.24012773036956786 -0.4676182746887207,-0.021879097819328307 l-0.7058004379272461,0.35861949920654296 -0.7052481174468994,0.35270378589630125 l-0.2683719635009766,0.8072842597961426 -0.04663747847080231,1.2470979690551758 l-0.4149120807647705,0.8950993537902832 0.2781128644943237,1.4112716674804688 l0.24385995864868165,1.0826502799987794 0.699242353439331,1.0778969764709472 l0.9613901138305664,0.7186122417449952 1.3396036148071289,0.27056231498718264 l1.5872960090637207,-0.34940810203552247 1.7759855270385743,-0.9986316680908203 m6.79085693359375,-15.977230834960938 l0.02252793461084366,-0.07426015138626099 -0.19963603019714354,0.09064909219741821 l0.37049069404602053,0.33297226428985593 -0.37196805477142336,0.5935354232788086 l-0.18957250118255614,0.929503345489502 0.14713361263275146,1.5973505973815918 l-0.7055249691009522,1.5873207092285155 0.4703513622283936,2.3553287506103517 l-0.34074580669403076,1.973604965209961 0.4482419490814209,2.2178754806518555 l0.2593024015426636,2.0825815200805664 -0.08996295928955078,2.1304533004760744 l0.03658334612846374,1.8821588516235352 -0.07506415843963624,1.6568410873413086 l0.276414680480957,1.0009766578674317 0.3220064163208008,0.3477436065673828 m7.370127868652344,-6.987494659423828 l-0.523983383178711,0.36657209396362306 -0.7213170528411865,-0.01680009365081787 l0.34991455078125,0.2694732904434204 0.19685298204421997,0.0010842218995094298 l0.7148888587951661,-0.18910907506942748 1.216963291168213,-0.35059428215026855 l0.8659495353698731,-0.6350796222686768 1.0796079635620117,-0.5015224933624267 l0.17658663988113404,-0.6687522888183594 0.2312077760696411,-0.47220869064331056 l-0.8722011566162109,-0.6952287673950195 -0.6706943988800049,-0.47947163581848146 l-1.2019468307495118,0.13289217948913573 -1.6062105178833008,0.6325862407684326 l-1.5052370071411132,1.5508833885192872 -1.251346969604492,1.6047773361206055 l-0.2945103168487549,1.6787460327148438 1.3628140449523927,1.5916393280029297 l1.1352628707885741,0.9810230255126953 1.4377426147460937,0.4344600200653076 l2.042316436767578,0.10483026504516602 2.1826665878295897,-0.2889070749282837 l2.5360733032226563,-0.34438765048980713 1.7507831573486328,-0.7297263145446777 m37.702056884765625,-22.203579711914063 l0.20801889896392822,0.07650194168090821 0.43082823753356936,0.5648711204528809 l0.22999958992004393,1.408078384399414 0.10388967990875245,2.488134574890137 l-0.24598968029022217,3.5769287109375 -0.6672146797180176,3.8707763671875 l-0.19388006925582885,3.289753723144531 0.20349161624908446,2.8030200958251954 l0.08887597322463989,2.131596565246582 0.39330780506134033,1.6142080307006836 l0.07882323265075683,0.5538610458374024 0.20264484882354736,-0.2894461631774902 m10.900956726074218,-17.961228942871095 l-0.30375070571899415,0.6540588855743408 -0.17069525718688966,2.094166564941406 l-0.12850927114486693,3.0042137145996093 -0.37340285778045657,2.676443099975586 l-0.5604583740234375,2.402384948730469 0.3555095434188843,1.8834573745727539 l0.30930683612823484,1.2510056495666504 0.3809750318527222,0.8331537246704102 m-6.6016357421875,-5.557052230834961 l0.28669378757476804,-0.1102074146270752 0.06986597776412964,-0.5213869094848633 l0.8829345703125,-0.3657689571380615 1.1300500869750976,-0.583339262008667 l1.2031893730163574,-0.33690557479858396 2.343552589416504,0.1311124324798584 l1.4212998390197753,-0.2071247100830078 1.5516807556152343,-0.4385528087615967 m12.192350769042969,-5.604164123535156 l-0.9214232444763184,-0.30559391975402833 -0.8084744453430176,-0.08703978061676025 l-1.323439598083496,-0.005868962407112122 -1.0430715560913086,0.13657618761062623 l-0.8237854957580566,0.15898579359054565 -0.5605020523071289,0.07106580734252929 l-0.24063489437103272,0.7319000244140625 0.14132602214813234,1.3316096305847167 l0.14849644899368286,1.3815969467163085 0.5861495018005372,1.4760075569152833 l0.5408589363098144,1.4090408325195312 1.4246506690979004,1.4743144989013672 l0.8154525756835938,1.2623540878295898 0.4276608943939209,0.9665884017944336 l-0.057122576236724856,0.6760673522949219 -0.65762300491333,0.6272899627685546 l-0.9290389060974121,0.4700136661529541 -1.4950054168701172,0.3220242500305176 l-1.4543500900268556,0.22912938594818116 -1.1303481101989745,0.08624141216278076 m15.590010070800782,-4.537907409667969 l0.45053749084472655,0.0673029363155365 1.1706562995910645,-0.47524566650390626 l1.3190494537353517,-0.7085049629211426 0.8931709289550781,-1.3339143753051759 l1.6159139633178712,-0.8984569549560547 0.49338564872741697,-1.2582923889160156 l0.02340574711561203,-0.9138964653015137 -0.1474325180053711,-0.602076530456543 l-0.42316856384277346,-0.39351940155029297 -0.13867323398590087,-0.07116912603378296 l-0.4413768768310547,0.05409919023513794 -1.4405546188354492,0.3335381031036377 l-1.3034300804138184,0.749838399887085 -2.0994804382324217,1.2263697624206542 l-1.4383181571960448,2.106340026855469 -1.4450732231140138,1.9934947967529297 l-0.09358886480331421,2.0620622634887695 0.03130352199077606,1.6038944244384765 l1.0523143768310548,1.1290577888488769 2.1985363006591796,0.8428300857543946 l2.6192493438720703,0.029971912503242493 2.908651351928711,-0.3630238056182861 l3.0660573959350588,-0.4415675163269043 2.812540817260742,-0.8836955070495606 m8.590269470214844,-4.974903106689453 l-0.009818392992019653,-0.20582866668701172 -0.20805003643035888,-0.5100610733032227 l-0.15695638656616212,-0.7213062286376953 -0.6204617023468018,-0.5732694149017334 l-0.8808516502380371,-0.3820620059967041 -0.7380590915679932,-0.08297711610794067 l-1.0129422187805175,0.0670817732810974 -0.9440642356872558,1.0279302597045898 l-1.1345584869384766,1.6288843154907227 -1.0346760749816895,2.2946659088134767 l-0.4886526584625244,1.9733293533325196 -0.14267468452453613,1.772796058654785 l0.3659355878829956,0.7877666473388671 1.0283302307128905,0.5755900859832763 l0.7386091232299805,-0.2539862632751465 1.6628238677978515,-1.0455436706542969 l1.9990129470825195,-2.3681087493896484 2.778607940673828,-2.704869842529297 l1.8836647033691407,-2.770443916320801 1.6719572067260742,-2.12978572845459 l0.5912201881408692,-2.082149314880371 0.4675403594970703,-2.2240732192993162 l0.11607835292816163,-1.7707586288452148 -0.08698541522026063,-0.8209364891052247 l-0.18931018114089965,-0.08498677611351013 -0.8245512008666992,0.5971956253051758 l-0.8951831817626953,1.6196407318115233 -1.0204357147216796,2.487019729614258 l-0.3737942695617676,2.7495197296142577 -0.3902509450912476,2.7148979187011717 l-0.15455472469329834,2.591783332824707 0.44592814445495604,2.442020606994629 l0.23772313594818115,2.259486770629883 0.6225910663604737,1.697096061706543 l0.2733222484588623,0.8664628982543945 0.48672189712524416,0.3895021677017212 m3.0518171310424806,-12.937895202636719 l0.1671465039253235,1.5303092002868652 0.29018688201904297,1.8310321807861327 l-0.22270283699035645,1.8252067565917969 0.43627114295959474,2.0124652862548826 l0.13803162574768066,1.9729934692382813 0.8045585632324219,2.2718036651611326 l0.24337513446807862,2.0759273529052735 -0.10247950553894043,0.8499238014221191 l0.2872183799743652,0.5762042045593262 0.016223056614398955,0.13689559698104858 l0.5134339809417725,0.08175069093704224 -0.27855238914489744,-0.9901582717895507 m-2.9195253372192385,-9.059980773925782 l-0.16129918098449708,-0.11553831100463867 0.28627040386199953,-0.5420515537261963 l0.6405140876770019,-0.3670783281326294 1.2003829956054688,-0.6640965461730957 l1.6688135147094727,-0.3887036800384521 1.6367412567138673,-0.3198563575744629 l1.8453409194946289,-0.04492100477218628 1.7387422561645507,0.36462745666503904 l1.1271583557128906,0.43344864845275877 1.279036045074463,0.6429216861724854 l0.7536038398742676,0.5547001361846924 0.9194035530090332,-0.04006893634796142 l0.2929727077484131,-0.2189608097076416 0.26632306575775144,-0.06713498234748841 l0.4779541015625,0.006229067593812943 " fill="none" stroke="black" stroke-width="1" /></svg>