<?xml version="1.0" encoding="utf-8" ?>
<svg baseProfile="full" height="167.82910637147717" version="1.1" width="870.1177015073489" xmlns="http://www.w3.org/2000/svg" xmlns:ev="http://www.w3.org/2001/xml-events" xmlns:xlink="http://www.w3.org/1999/xlink"><defs /><rect fill="white" height="167.82910637147717" width="870.1177015073489" x="0" y="0" /><path d="M25,140.36588160283856 m2.245026779174805,-3.5227447509765626 l-0.7253215789794922,0.07894587516784668 0.12999571561813356,0.49213409423828125 l0.8628133773803711,0.4147334098815918 m0.9946089744567871,-0.8935691833496093 l0.6673840999603271,0.056471383571624754 0.7240016460418701,0.41444907188415525 l0.41793174743652345,0.7638415336608887 0.6812485694885254,1.2423036575317383 l0.5214634418487549,1.4388195037841798 0.5602242946624756,1.2630836486816406 l0.6684887409210205,0.6305696964263916 1.137030792236328,0.0841868281364441 l0.9525819778442383,-0.6432231903076172 1.4552057266235352,-1.2314695358276366 l0.8953114509582519,-1.8197328567504882 1.1269975662231446,-1.1639126777648925 l1.080762004852295,-1.1058016777038575 2.1573482513427735,-0.910789680480957 l1.471394157409668,-0.6930099487304687 m9.7650146484375,-19.091046142578126 l-0.018041032552719116,-0.0758005440235138 -0.024876095354557037,1.1699630737304687 l0.9056913375854492,2.107923889160156 0.15202218294143677,4.089139556884765 l-0.6704860210418702,5.205207824707031 -0.5477291107177734,5.732402420043945 l-0.4890153884887695,4.493073272705078 -0.2096426248550415,1.2962079048156738 m18.76496124267578,-28.42142333984375 l0.2120206832885742,0.3919260263442993 0.7971934795379638,1.468870258331299 l0.4798139572143555,2.3348899841308595 1.7760395050048827,2.426700210571289 l1.7476886749267577,0.9802861213684082 2.761503219604492,0.5244866371154785 l3.228681182861328,-0.6388843536376954 3.208954620361328,-1.3835701942443848 m11.457411193847657,16.14399871826172 l-0.40413851737976075,0.11892774105072021 -0.009736756980419158,0.020231461524963378 l-0.07753548622131348,-1.080142879486084 0.2682113885879517,-2.111729049682617 l1.3037075042724608,-2.565268707275391 2.0601598739624025,-2.942823600769043 l2.810613441467285,-2.555289077758789 2.6531578063964845,-1.708719253540039 l2.310297966003418,-0.27206850051879883 1.5252046585083008,0.610884714126587 l0.9198184967041015,1.550406265258789 0.20871148109436036,2.0315315246582033 m3.5482139587402344,1.681673240661621 l-0.08705118894577027,0.2447035312652588 0.5245206832885743,1.8845129013061523 l0.17518140077590943,1.4925714492797852 0.7969804763793945,2.03106575012207 m24.03117218017578,-47.70235900878906 l-0.06736474633216857,-0.5281662940979004 0.02482982873916626,0.20524182319641113 l0.0923220157623291,0.36339356899261477 0.12999457120895386,1.30240478515625 l0.2213362216949463,2.4043426513671875 0.3611295223236084,3.541228485107422 l-0.3387648820877075,4.251594924926758 -0.802799129486084,5.234469604492188 m4.807196044921875,5.518340301513672 l0.19749289751052856,0.23235032558441163 0.6682505130767822,0.28667078018188474 l0.648174238204956,-0.14280190467834472 0.8305882453918457,-0.2716360569000244 l0.02562553286552429,-0.9373771667480468 0.24112467765808104,-0.7357749462127685 l-0.11390037536621093,-1.1287055015563965 0.1325525999069214,-0.9698253631591797 l0.41178555488586427,-0.367922306060791 0.12656123638153077,-0.7068787574768066 l0.350081205368042,-0.4129015922546387 0.48618326187133787,-0.025213193893432618 l0.16422479152679442,-0.4554595470428467 -0.00752892792224884,-0.10249580144882202 l-0.09308156371116638,-0.009300893545150757 0.09850274324417115,0.1846559762954712 m-2.5822774887084963,6.769744873046875 l0.3461370229721069,0.6829912662506104 0.2415024757385254,0.14868830442428588 l0.35501575469970703,0.019588267803192137 0.7171841621398926,0.12631654739379883 l0.8332022666931153,-0.470746374130249 1.3364554405212403,-0.9657934188842774 l1.4791427612304688,-1.0308027267456055 1.6718568801879883,-1.3643136978149415 l1.4351195335388183,-1.5247689247131349 1.5885591506958008,-1.2909002304077148 l1.0399877548217773,-1.336483860015869 0.6604208946228027,-0.4254758358001709 l-0.10978176593780517,0.02666477859020233 0.0019513197243213654,0.29219827651977537 l-0.2453740119934082,1.6488426208496094 -0.7413156032562256,1.7012994766235352 l-0.2140688419342041,2.3795425415039064 0.4833972930908203,1.7032709121704102 l0.8173378944396973,0.614478588104248 1.9758260726928711,0.718420934677124 l1.608500099182129,-1.0805229187011718 2.7469694137573244,-0.8014261245727539 l2.724863815307617,-1.7837419509887695 2.9928752899169924,-1.041069221496582 l1.9304391860961914,-1.0423831939697266 1.46226167678833,0.19446022510528566 l0.6850978851318359,0.5145435333251953 0.4015486717224121,0.46202073097229 l0.7192373752593995,0.9185999870300293 0.8730818748474121,0.7220624923706055 l1.745077133178711,0.8136929512023926 1.9756114959716797,0.2862250328063965 m12.264154052734375,1.3606389999389648 l0.11694715023040772,0.414734411239624 0.14672787189483644,1.4375619888305664 l0.10973109006881714,3.598481369018555 -0.6049736976623535,2.231004333496094 m25.19052734375,-24.67003631591797 l0.11653788089752197,-0.1981523036956787 -0.43740220069885255,-0.452128267288208 l-0.18844058513641357,0.4395932674407959 0.06022887229919434,0.35225274562835696 l-0.2623605728149414,0.6078989028930664 -0.4707592010498047,1.5990742683410644 l0.015388974547386169,3.181535339355469 -0.6631065368652344,2.953404998779297 l0.3295269966125488,3.0622909545898436 0.4183258056640625,1.9110820770263672 l0.7474227905273437,1.0089124679565429 1.1623644828796387,0.1501943588256836 l1.0236370086669921,-0.7777884006500244 1.1991243362426758,-1.229783058166504 l0.7821015834808349,-1.9935081481933594 0.14041839838027953,-2.503449249267578 l-0.003118346631526947,-1.6492612838745118 -0.9731368064880371,-1.4096312522888184 l-1.0938578605651856,-0.7803721904754639 -1.847996711730957,-0.7340418815612793 l-0.9190398216247558,0.2445070266723633 -0.855975341796875,-0.28959879875183103 l0.3894802570343018,0.24077508449554444 1.6413061141967773,0.2931534767150879 l2.2094022750854494,-0.8996613502502442 3.305878448486328,-1.4220733642578125 l3.9420181274414063,-1.600345993041992 3.278655242919922,-2.0428945541381838 l2.8979568481445312,-1.7613073348999024 1.9779647827148437,-2.201909637451172 l1.7313514709472657,-1.9543167114257813 0.3653846263885498,-2.5444499969482424 l-0.15175952911376953,-2.2817813873291017 -1.1823553085327148,-1.5683172225952149 l-1.1509670257568358,-0.43257851600646974 -1.747007179260254,0.022989825904369356 l-1.5845354080200196,1.5092451095581054 -1.9044607162475586,2.4958475112915037 l-0.9382498741149903,3.969843292236328 -0.24338076114654542,4.658624649047852 l-0.3605389356613159,4.3704170227050785 0.11335010528564453,3.4979209899902344 l0.5569057941436768,2.5430912017822265 0.7218008518218995,1.454286766052246 l0.5568994522094727,0.153598415851593 0.11905946731567382,-0.42758545875549314 l0.21363275051116942,-1.1604959487915039 0.29791810512542727,-2.7274789810180664 l0.6755953311920166,-2.5105976104736327 0.34667372703552246,-2.0236846923828127 l-0.17176471948623656,-1.2676246643066407 -0.33459625244140623,-0.12573062181472777 l-1.0193761825561523,0.4496640682220459 -0.7443933486938477,1.9255525588989257 l-0.5857167720794678,2.3505931854248048 0.6908003807067871,2.4016544342041017 l1.2974053382873536,1.8323476791381836 1.6148736953735352,0.7950067043304443 l2.738481330871582,0.3215055465698242 2.5662521362304687,-0.22825906276702881 l2.0110794067382813,-0.7722033500671387 1.3729217529296875,-1.2511817932128906 l1.3778932571411133,-1.2465901374816895 0.7595746517181396,-1.703767967224121 m35.6165283203125,-23.69233093261719 l-1.0595893859863281,0.6952758312225342 -0.9642065048217774,1.530898094177246 l-0.4294234275817871,3.407133865356445 -1.3165796279907227,4.301247024536133 l-1.344049835205078,4.174057388305664 -0.43000340461730957,4.571068572998047 l-0.266559100151062,2.7185741424560548 0.5965265750885009,2.2941215515136717 m13.664863586425781,-10.041146087646485 l-0.022783644497394562,-0.20969769954681397 0.21077933311462402,0.6785009384155274 l-1.1831902503967284,1.2248985290527343 -1.5238515853881835,2.6197879791259764 l-1.7911264419555664,2.4819948196411135 -1.0572458267211915,1.647249984741211 l0.07882790565490723,1.6626705169677733 0.153151273727417,0.44489459991455077 l1.1295997619628906,0.09691901206970215 1.1336360931396485,-0.7980441570281982 l1.82957763671875,-1.831820297241211 2.4714574813842773,-2.698672294616699 l1.8924875259399414,-2.975223731994629 1.284122848510742,-2.698564910888672 l-0.08194265365600586,-1.5779541015625 0.4903098583221436,0.7289460182189942 l-0.5028588771820068,1.7998224258422852 0.12166742086410523,2.62274169921875 l1.3782696723937988,2.351911735534668 1.9230890274047852,1.1288206100463867 l2.731767272949219,0.47002325057983396 3.3433326721191405,0.10407087802886963 l3.7040470123291014,-0.6938886642456055 3.441477584838867,-0.7766591072082519 m31.197039794921874,-20.350491333007813 l-0.9584033966064454,1.0257454872131349 -0.902686882019043,2.4039333343505858 l-0.2934266090393066,4.10826301574707 0.6435042381286621,4.693197250366211 l0.8829254150390625,3.888280487060547 1.3850217819213868,1.8256492614746094 l2.8140066146850584,1.6931283950805665 2.4771278381347654,-0.05171958208084106 l2.4614589691162108,-0.40175638198852537 2.0086444854736327,-0.9154779434204101 l1.4429965972900392,-1.2476633071899415 1.7988985061645508,-2.2133703231811523 l1.833572006225586,-3.211682891845703 1.5133869171142578,-3.472115707397461 l0.7428908824920655,-3.1244211196899414 -0.07048672437667847,-1.1454230308532716 l-0.8402012825012207,0.015396223962306976 -0.21313233375549318,-0.08602598309516907 l-0.026502066850662233,-0.007686497271060943 0.6797285556793213,0.1805629849433899 l1.9716609954833983,0.1193681001663208 2.739714813232422,-0.2217404365539551 l3.500825881958008,-0.7333786487579346 2.9523468017578125,-2.0176517486572267 l3.3476940155029298,-1.7553245544433593 2.1157102584838867,-1.854422378540039 l1.2164622306823731,-1.367701530456543 -0.07420488595962524,-0.8171154975891113 l-1.4729748725891114,-0.6202210903167724 -2.907061004638672,0.436475944519043 l-4.518220520019531,2.6232622146606444 -4.9320110321044925,4.687837600708008 l-3.582126235961914,5.897714996337891 -0.9683668136596679,4.3902740478515625 l1.7210943222045898,2.016946792602539 3.5206863403320314,0.5290151119232178 l4.405709075927734,-0.6452430725097656 3.542585754394531,-2.2606174468994142 l3.9757949829101564,-2.5796329498291017 1.3737979888916017,-3.2326686859130858 l1.1899069786071776,-2.759067344665527 -0.1568319320678711,-2.2036256790161133 l-0.49642009735107423,-1.0588984489440918 0.041477376222610475,-0.1506446361541748 l0.2675257921218872,-0.4017810821533203 1.2129032135009765,-0.7291659355163574 l1.290144157409668,-1.5129508018493651 2.6622970581054686,0.03271638154983521 m27.215469360351562,-1.9586013793945312 l0.0027030276134610174,0.14186860322952272 -0.06309974789619446,1.0180753707885741 l-1.1862735748291016,3.53869514465332 -1.4267024993896484,5.446989059448242 l-0.552041482925415,5.323128509521484 0.04745084345340729,4.059497833251953 l-0.13124277591705322,2.6002620697021483 0.6876516342163086,1.3183523178100587 m16.383786010742188,-25.620330810546875 l0.9090811729431152,-1.0723623275756835 0.42566914558410646,-0.13376762866973876 l-0.6123645305633545,0.2503052711486816 -0.7404812812805176,1.390793800354004 l-2.031694030761719,2.4888925552368164 -2.390947723388672,4.078732299804687 l-1.862969970703125,5.064820861816406 -2.452748489379883,4.900959014892578 l-0.7732231616973877,5.0640205383300785 -0.8967214584350586,4.428175354003907 l-0.5692732810974122,3.782626724243164 -0.7702199935913085,3.1930767059326173 l-0.9137898445129394,2.842197799682617 -1.8342950820922852,2.7101308822631838 l-1.7933389663696289,2.2846874237060546 -0.9135449409484864,1.0531439781188965 l-0.8172808647155761,-0.05261406898498535 -0.40010576248168944,-0.20730395317077638 l-0.16674314737319945,-0.09873281717300415 -0.2233095645904541,-0.387513256072998 l0.10211660861968994,-0.3591517210006714 0.21473309993743897,-0.12447642087936402 l0.5008856773376464,-0.8544620513916016 0.6102054119110107,-1.084785556793213 m20.525794982910156,-39.31026916503906 l-0.7457723140716552,0.5091988563537597 -0.7274934768676757,0.8435882568359375 l-0.9318488121032715,2.3467369079589844 -0.6573246002197266,3.4449951171875 l-0.960289192199707,3.4182861328125 -0.579580545425415,3.9988128662109377 l0.4731446266174316,1.9702674865722656 1.003363037109375,1.2379205703735352 l1.494537353515625,0.6719892024993896 1.31290922164917,-0.08546218872070313 l1.5090932846069336,-0.6691990375518799 1.4008451461791993,-0.733272123336792 l1.1042574882507323,-1.8518308639526366 1.3646908760070802,-1.752662467956543 l1.1519336700439453,-0.11053435802459717 0.3649434566497803,1.0016674995422363 l-0.04629734754562378,2.3314935684204103 -0.03397099375724792,2.6489458084106445 l-0.3867695093154907,2.5135629653930662 0.3605846405029297,1.8557168960571289 l0.9092833518981933,0.5488968372344971 1.3650526046752929,-0.9100213050842285 l2.2201234817504885,-2.658650207519531 2.6053483963012694,-3.6746315002441405 l3.078236389160156,-4.067888641357422 2.6076868057250975,-3.9404586791992187 l2.746490478515625,-2.0043731689453126 2.3754587173461914,-1.3904037475585938 l2.3551340103149414,-1.0068703651428224 1.9332235336303711,-0.5841551303863526 l1.6379730224609375,0.6787520408630371 0.9409493446350098,2.035588264465332 l-0.10367345809936523,1.4191094398498536 -0.7188360691070557,2.111183929443359 l-1.0836374282836914,1.5774544715881347 -1.9443376541137696,1.3985254287719726 l-1.7942113876342773,1.4105064392089843 -1.5975355148315429,0.21439650058746337 l-0.9864340782165527,1.1918231010437013 0.005601558089256287,-0.487244701385498 l-0.12921710014343263,-0.5173004150390625 0.6183352947235108,-0.6588485240936279 l1.627313995361328,-1.762810516357422 2.302359771728516,-1.6770183563232421 l2.7284656524658204,-2.102220344543457 3.0252418518066406,-2.24737663269043 l2.659901428222656,-1.62484130859375 2.0939844131469725,-1.176127815246582 l1.2236503601074218,-0.04761776328086853 0.24340410232543946,0.04778566360473633 l-0.07885533571243286,0.6493782043457031 -0.8875944137573242,2.234714889526367 l-1.6863128662109375,2.094834327697754 -1.281320571899414,2.2364612579345704 l-0.231233811378479,1.119590663909912 0.42678394317626955,0.13475776910781861 l1.5455702781677245,-0.04943592548370361 2.199884605407715,-2.199968719482422 l2.807318115234375,-2.0140077590942385 3.297327423095703,-2.8963932037353515 l3.3217094421386717,-2.0734764099121095 2.293956756591797,-0.9755181312561035 l0.9631136894226074,0.22108428478240966 -0.05617630481719971,0.8227218627929688 l-0.7690599441528321,1.3067182540893554 -1.0321770668029786,2.294429969787598 l-1.1922197341918945,2.1968158721923827 -0.5575218677520752,1.993532943725586 l-0.07147133946418763,0.401492977142334 0.5836648941040039,0.11778141260147094 l1.2429943084716797,-0.9607911109924316 2.4254669189453124,-0.6787250518798829 l2.67311954498291,-1.8403865814208984 2.068301200866699,-1.1838187217712401 l1.3743768692016602,-1.0745806694030762 0.4195862770080566,0.19160133600234985 l-0.03576745986938477,1.381689453125 -0.2974364757537842,2.153366279602051 l-0.26069667339324953,0.8831342697143555 0.2514012813568115,0.9324350357055664 l0.5889724731445313,-0.1477323889732361 1.7397138595581054,-0.28881125450134276 l2.554238510131836,-1.5736740112304688 3.2381481170654296,-2.4827571868896485 l3.566249465942383,-2.7421344757080077 3.408213424682617,-2.8311594009399412 l3.2642181396484373,-1.6663490295410157 2.333827018737793,-0.6011070728302002 l0.82962064743042,0.2035628080368042 0.6341943740844727,0.6222593307495117 l-0.431505012512207,0.3418413162231445 -0.7175928115844726,0.43024721145629885 l-1.1042171478271485,-0.055011135339736936 -1.1981085777282714,0.07572119235992432 l-0.8775276184082031,0.7106266021728516 -1.2263049125671386,1.1230031967163085 l-1.78172607421875,0.7521826744079589 -1.2648088455200195,1.3546265602111816 l-0.7786564350128173,1.2761172294616698 -0.7071668624877929,1.3041078567504882 l0.453731632232666,1.4097418785095215 1.069737434387207,0.7789260864257812 l1.8053928375244142,-0.11674489974975585 2.686683464050293,-0.6328888416290284 l3.3369789123535156,-1.7557924270629883 3.18881893157959,-1.6979305267333984 l3.467105484008789,-1.2197311401367188 2.148602294921875,-1.1678726196289062 l0.5100800514221191,0.0690183162689209 -0.2716668128967285,0.3148691654205322 l-1.7880329132080077,2.3031822204589845 -2.4431129455566407,3.1160537719726564 l-2.425777244567871,2.734688568115234 -1.5136577606201171,2.2588855743408205 l-0.07674850225448608,1.1037563323974608 1.4067946434020997,-0.39158580303192136 l3.487244415283203,-1.5937043190002442 3.9881969451904298,-3.4786190032958983 l5.238868713378906,-2.8029306411743162 4.834485626220703,-3.714603042602539 l4.35405387878418,-3.029544639587402 3.393330383300781,-2.52628173828125 l1.216543960571289,-1.8286766052246093 -0.49556498527526854,-0.7102358341217041 l-0.6792049884796143,0.5642484664916992 -2.275380325317383,0.5904507160186767 l-2.8193397521972656,1.7566944122314454 -2.6042993545532225,2.8802894592285155 l-2.04144401550293,3.637816619873047 -1.0742292404174805,3.578016662597656 l0.05883817076683044,2.2238264083862305 1.2697977066040038,0.9836291313171387 l2.834549903869629,-0.1045251727104187 3.8630104064941406,-1.4007532119750976 l4.291108703613281,-2.8474357604980467 5.557897567749023,-3.203196716308594 l5.9300495147705075,-3.4152530670166015 5.744961547851562,-3.040145492553711 l4.443610763549804,-2.483793258666992 3.195582389831543,-2.2486650466918947 l1.5672348976135253,-0.8428600311279297 -0.08237645030021667,-0.35936641693115234 l-0.8849943161010743,0.39065325260162354 -2.9808347702026365,1.8027179718017579 l-3.351551055908203,2.669662666320801 -3.4364650726318358,3.9003574371337892 l-2.4754236221313475,4.236784362792969 -1.2861652374267578,2.8211652755737306 l0.28070788383483886,1.4691678047180177 1.1404871940612793,0.03655714094638825 l2.6393409729003907,-1.4136458396911622 3.2657695770263673,-2.8181121826171873 l4.458830261230469,-3.419791412353516 4.104259490966797,-3.7768108367919924 l3.525864028930664,-2.7874879837036133 1.8195030212402343,-1.5776151657104491 l0.36390554904937744,-0.221283221244812 -0.41420788764953614,0.02493848204612732 l-1.3876619338989258,0.1462574005126953 -0.4310009956359863,0.3761570453643799 l-4.851316334679723e-05,-0.03832864463329315 0.09249062538146972,-0.09741008877754212 l1.3461810111999513,0.24267048835754396 1.7705734252929688,0.10459798574447632 l1.6951459884643554,0.0023038920015096666 1.331243133544922,-0.045541238784790036 l1.2668342590332031,0.7095249176025391 0.5467875003814697,0.7425843238830566 l-0.20554091930389404,0.7889616966247559 -0.5376590728759766,1.696303939819336 l-1.0151378631591796,1.973717498779297 -0.5467915058135986,2.5727834701538086 l-0.5326336860656739,1.5030770301818848 0.949040412902832,1.1683239936828613 l1.303805160522461,0.3476171731948853 1.614825439453125,-1.1324956893920899 l2.83785343170166,-0.769979190826416 2.330683708190918,-1.1823657989501952 l2.7185123443603514,-0.9694751739501953 2.5987892150878906,-1.0196138381958009 l1.6588340759277345,-0.8205219268798828 0.8223679542541504,0.3035170555114746 l0.18142579793930053,0.6842837333679199 -0.6412981986999512,1.128488540649414 l-1.2355278968811034,1.7292396545410156 -1.050727939605713,1.3026484489440917 l-0.038067519664764404,0.6705546379089355 0.6950997829437255,0.2732512950897217 l0.8605732917785645,-0.5734345436096191 1.842979621887207,-0.5993075847625733 l2.2602346420288084,-2.033407974243164 2.031982421875,-1.910997200012207 l2.0329893112182615,-1.3189088821411132 1.2408900260925293,-0.9675484657287597 l0.02251420170068741,-0.7943418502807618 -0.30519843101501465,0.18573307991027832 l-0.5490339279174805,0.40557422637939455 -1.5294999122619628,1.3932696342468263 l-1.6048736572265625,2.0338443756103515 -1.2945733070373535,2.7539186477661133 l-1.0234645843505858,2.4600210189819336 0.04566854238510132,2.011203956604004 l0.26203393936157227,0.6643307685852051 1.5581998825073242,0.32758541107177735 l2.3235570907592775,-0.7599815845489502 2.1716758728027346,-2.4105262756347656 l2.497003364562988,-2.344059181213379 2.96268367767334,-2.842350196838379 l2.115718650817871,-3.1868896484375 2.6091163635253904,-2.2543865203857423 l1.235011672973633,-2.0665008544921877 0.4737521171569824,-0.3451897144317627 l-0.28998026847839353,0.2565227746963501 -1.5365251541137694,1.245511245727539 l-2.8779571533203123,3.1139719009399416 -3.358490753173828,4.327938079833984 l-2.7716142654418947,4.204743957519531 -1.5271491050720214,3.7205711364746095 l-0.005121833831071854,2.2283355712890627 1.1362344741821289,0.42587032318115237 l2.475009536743164,-0.3718174695968628 2.9138057708740233,-2.089349555969238 l4.364522552490234,-2.7993795394897463 5.475860595703125,-3.7906269073486327 l3.5033985137939454,-1.2680242538452149 1.9240068435668944,-0.8231457710266114 l0.9729245185852051,0.31868491172790525 -0.5794075965881348,0.08348237872123718 l-0.8712090492248535,0.2469231367111206 -0.44281682968139646,0.35253856182098386 l-0.31865744590759276,-0.16529041528701782 0.7967090129852294,0.17348117828369142 l2.0367225646972655,-1.0812728881835938 3.2176441192626952,-1.5046586990356445 l4.487891769409179,-1.02911376953125 6.964374542236328,-1.4674131393432617 l1.6770437240600586,1.3152124404907226 1.0259934425354005,1.807999038696289 l-7.352531433105469,16.08122100830078 -0.7063406944274903,1.9468313217163087 l-0.16473138332366943,-0.5037337303161621 m31.808660888671874,-17.697785949707033 l-0.34250578880310056,-0.8036350250244141 -0.24904744625091552,-0.8430417060852051 l-0.20782623291015626,-1.2231454849243164 -0.9009084701538086,-1.0188641548156738 l-1.3356428146362305,-1.0325251579284669 -2.1765336990356445,0.24686167240142823 l-2.36248779296875,1.505438995361328 -2.9241315841674806,2.313557434082031 l-3.4406375885009766,3.6958778381347654 -1.80972900390625,3.820423889160156 l0.3011518716812134,2.1869544982910156 1.168221378326416,0.3435763120651245 l2.290791702270508,-1.1451242446899415 3.4156867980957033,-2.7403642654418947 l3.504867935180664,-2.935480308532715 2.602725791931152,-3.2195507049560548 l4.812136840820313,-3.860291290283203 3.1624013900756838,-1.9916860580444335 l1.1563778877258302,-0.49976472854614257 -0.19463143348693848,-0.10166128873825073 l-0.6835044860839844,0.6896532058715821 -1.4547582626342774,2.957208824157715 l-1.5213203430175781,4.1710163116455075 -1.7361324310302735,5.0427101135253904 l-1.6624542236328126,5.402610778808594 -2.569879913330078,7.308767700195313 l-0.5546918869018554,6.059331893920898 -3.6945640563964846,14.204698181152343 l-1.6019771575927735,1.3093902587890625 m-3.7642871856689455,-21.74247589111328 l0.9208238601684571,-1.7876056671142577 9.705116271972656,-4.761772155761719 l3.264553451538086,-1.2820287704467774 4.567101287841797,-1.473801612854004 l4.200587463378906,-1.675384521484375 3.4002185821533204,-1.1614142417907716 l2.3315284729003904,-0.8112100601196289 m-11.999909210205079,17.3208251953125 l-0.06959333419799804,-0.09032514691352844 0.1415717124938965,-0.7034993171691895 l1.1197443008422852,0.01736421138048172 1.384233570098877,-0.8967472076416015 l1.6196891784667968,-0.5177477836608887 m4.2353660583496096,4.3072357177734375 l0.8023354530334472,-1.2758258819580077 2.2672025680541994,-1.3920852661132812 l2.4614965438842775,-2.6161375045776367 2.633140754699707,-2.370701789855957 l2.624517250061035,-2.3533327102661135 1.8031793594360352,-1.6601226806640625 l1.061058235168457,-0.4381053924560547 0.09175903201103211,-0.07970860004425048 l-0.5726924419403077,0.14668232202529907 -1.4326678276062013,1.3873458862304688 l-2.331550407409668,2.7846988677978515 -3.446670150756836,3.8288463592529296 l-3.0310096740722656,3.771744155883789 -2.141283416748047,3.179388427734375 l-0.538818073272705,1.8992158889770507 2.9716285705566405,0.48419957160949706 l3.6951488494873046,-1.2990784645080566 3.3184181213378907,-1.774758529663086 l2.967760467529297,-3.03914794921875 2.42318115234375,-2.039948272705078 l-4.636166381835937,1.9648136138916015 -0.555223035812378,0.08591282367706299 l-0.09862744808197021,1.1912643432617187 -0.22343759536743163,1.074810791015625 l0.04492250680923462,1.2884300231933594 0.10784368515014649,0.2910094022750854 l0.6676566123962402,0.6597497940063477 1.3268115997314454,0.782290267944336 l1.555540180206299,0.7585427284240722 1.7371097564697267,-0.16376208066940307 l2.477427291870117,0.4654844284057617 2.884419250488281,0.5636427402496338 l2.8856006622314454,0.21863791942596436 2.2322513580322267,0.11623507738113403 l1.8906009674072266,0.5803355693817138 0.9226749420166016,-0.18882136344909667 l0.4104030132293701,0.019795677065849303 0.035848796367645264,0.16700348854064942 l-0.04149845838546753,-0.012938670814037323 -0.35634417533874513,-0.3931255578994751 l-0.7560939788818359,-1.5987041473388672 -0.2635789155960083,-1.0754900932312013 m12.903494262695313,-22.460008239746095 l-0.16100220680236815,-0.12830832004547119 0.26643369197845457,-0.31874651908874513 l0.17160406112670898,-0.45853185653686523 0.14269623756408692,-0.8518027305603028 l0.42517967224121095,-0.1285443425178528 -0.14914517402648925,-0.3784018516540527 l0.010752247273921966,-0.19330036640167236 -0.21543533802032472,-0.32157096862792967 l0.03235880136489868,-0.3165931463241577 0.06616895794868469,-0.17353756427764894 l0.16836284399032592,0.06559222340583801 0.0954741358757019,-0.08711866140365601 l-0.1421889305114746,-0.42065744400024413 -0.2366267204284668,-0.18166393041610718 l-0.054600900411605834,-0.07761115431785584 -0.040004998445510864,-0.05187687277793884 l-0.022067315876483917,-0.12537078857421874 -0.09663876295089721,-0.06951118111610413 l0.1459076523780823,0.2346884250640869 0.1597787022590637,0.21010358333587648 l-0.0702941358089447,-0.057995444536209105 0.05168256163597107,0.12512097358703614 l0.04791179299354553,0.10413999557495117 -0.0156479150056839,-0.13823533058166504 l-0.10154820680618286,-0.26435513496398927 0.22910914421081544,-0.10893021821975708 l0.021085891127586364,-0.4122488021850586 0.2500938415527344,-1.0203924179077148 l0.7325222015380859,-0.6183054924011231 0.6953000068664551,-0.3473105192184448 l0.640626335144043,-0.635992431640625 0.40858116149902346,-0.7452001094818115 l0.46936545372009275,-0.9910381317138672 0.7484638690948486,-0.7804310321807861 l0.7539312839508057,-0.7924191951751709 0.8166597366333008,-0.4136164665222168 l0.42494769096374513,-0.6884346008300781 1.0341068267822267,-0.13647444248199464 l1.2413970947265625,-0.05181864500045776 1.4260967254638672,-0.18739330768585205 l1.4390363693237305,-0.3540191173553467 1.5057430267333984,-0.6212072372436523 l0.1697420597076416,0.9117461204528808 0.1302626371383667,0.8196782112121582 l-0.6102675437927246,1.3792728424072265 -0.7928418636322021,1.8851512908935546 l-1.4870994567871094,1.290546989440918 -0.5207454681396484,1.6634910583496094 l-0.5024180889129639,0.5071840286254883 0.5025192260742187,0.4879149913787842 l0.8312847137451171,0.29248747825622556 m61.80763549804688,-32.34260559082031 l1.2703661918640137,-1.8652450561523437 1.516965961456299,-2.257257080078125 l1.3089462280273438,-2.076612091064453 1.1122623443603517,-1.1792715072631836 l0.32415003776550294,-0.25301127433776854 0.18619258403778077,0.19786728620529176 l-0.12144546508789063,0.23026843070983888 m-2.111354446411133,5.7185546875 l-0.6069535255432129,-0.32210025787353513 -0.12666828632354737,-0.2465195894241333 l-0.08574607372283935,-0.4178910732269287 -0.056246066093444826,0.053932410478591916 l-0.08090616464614868,0.006874945759773254 -0.28674683570861814,0.5651898384094238 l0.26053881645202637,1.4096595764160156 -0.203411865234375,1.282362174987793 l0.26373388767242434,2.0048248291015627 0.3114004373550415,1.462246799468994 l0.7707363128662109,1.5522064208984374 0.9602668762207032,1.3653118133544921 l0.9086004257202148,0.7163392066955566 1.5171869277954102,0.3472845792770386 l1.114809226989746,-0.3084911823272705 1.1354639053344726,-0.9449021339416503 l1.1824800491333007,-1.2557887077331542 0.8783008575439453,-1.5455181121826171 l0.5429866313934326,-2.3800048828125 0.2537480592727661,-2.0521778106689452 l0.24632670879364013,-0.9170242309570312 -0.3483015537261963,-0.36307849884033205 l-0.2416752338409424,-0.04030645489692688 0.17236815690994262,0.5472714900970459 m10.618582916259765,0.7813220024108887 l0.362758994102478,0.6176419258117676 0.2763818740844727,0.9749255180358887 l0.018563075363636015,1.571510410308838 -0.11839106082916259,1.9382164001464843 l-0.17420620918273927,2.2948190689086916 -0.10089355707168579,2.411228561401367 l-0.3619235515594482,2.74644775390625 -0.6707027435302735,3.110183334350586 l-0.6709166049957276,3.503329849243164 -0.7676108360290528,3.119343948364258 l-0.6124443054199219,2.5692607879638674 -0.40524682998657224,1.5063018798828125 l-0.357426118850708,-0.05404340624809265 -0.14091842174530028,-0.38320493698120117 l-0.3939687967300415,-0.8970859527587891 -0.5596490383148194,-2.4847808837890626 l-0.06630691885948181,-2.8633987426757814 -0.1367693066596985,-3.1512176513671877 l-0.12874263525009155,-3.6618839263916017 0.630794620513916,-3.402713394165039 l0.7912807941436768,-3.324100875854492 1.2682834625244142,-2.9373254776000977 l1.8850811004638672,-2.3798442840576173 1.9009923934936523,-2.3124732971191406 l2.279972457885742,-1.6080848693847656 2.3825891494750975,-1.1144350051879883 l2.6059669494628905,0.12861220836639403 1.8647159576416015,0.4769902229309082 l1.3049511909484863,1.0899845123291017 1.2756272315979005,2.004545211791992 l0.3741036653518677,1.8649568557739258 0.526900053024292,2.297941970825195 l-0.38107595443725584,2.4329490661621094 -0.6357782363891602,2.2427900314331053 l-1.0572149276733398,1.577543354034424 -1.234917449951172,1.6829240798950196 l-1.938189697265625,0.7362333297729492 -2.0983566284179687,0.22014107704162597 l-1.8219879150390625,-0.22498164176940919 -1.3589491844177246,-0.8666669845581054 l-1.137083148956299,-1.1328767776489257 m21.957368469238283,-20.550360107421874 l0.4346489429473877,1.6193098068237304 0.8740367889404297,2.0067232131958006 l-0.316795802116394,1.9554075241088866 -0.15280770063400267,2.416394805908203 l-0.18747313022613527,2.5655776977539064 -0.25824224948883057,2.7304487228393555 l-0.2827310562133789,2.7272335052490235 -0.01156940758228302,2.6043073654174806 l-0.14916303157806396,1.630208396911621 -0.1773654341697693,0.7741339683532715 l0.3075079917907715,0.8122674942016601 -0.25521562099456785,-0.28167831897735596 m3.6170894622802736,-11.521225738525391 l-0.14039899110794068,-0.18228585720062257 0.5948264122009277,0.5426759719848633 l-0.29655191898345945,0.026845335960388184 0.8031553268432617,0.4517384052276611 l0.8903406143188477,0.6489722728729248 0.5426187992095948,0.22142977714538575 l1.3851493835449218,0.19529979228973388 1.2596989631652833,-0.05595797300338745 l1.31712007522583,-0.288419771194458 1.0888936996459961,-0.6590388298034668 l1.2973405838012695,-4.530535125732422 0.26844403743743894,-0.7912361145019531 l-0.3438107967376709,-0.01328231543302536 -0.570049238204956,-0.10408201217651367 l-0.5564040660858154,0.47223968505859376 -0.3584174633026123,1.3147758483886718 l-0.587027645111084,1.733761978149414 0.3467397689819336,2.008951950073242 l0.5361624717712402,2.453109359741211 1.1089354515075684,2.333771514892578 l0.8250322341918945,1.7805564880371094 0.5959381103515625,1.4941923141479492 l0.5097631454467774,1.2685193061828612 0.21566402912139893,0.7500710487365723 l0.06265488862991334,0.0017006240785121917 -0.3945485591888428,0.10947885513305664 l-1.489328956604004,0.21881680488586425 -1.8764104843139648,-0.38900203704833985 " fill="none" stroke="black" stroke-width="1" /></svg>